<!-- Generated by IcoMoon.io -->
<svg version="1.1" xmlns="http://www.w3.org/2000/svg" width="53" height="32" viewBox="0 0 53 32">
<title>google</title>
<path d="M31.883 14.087h-14.415v5.227h8.633c-0.317 2.218-2.614 6.574-8.633 6.574-5.148 0-9.425-4.277-9.425-9.663 0-5.306 4.277-9.583 9.425-9.583 3.010 0 4.99 1.267 6.099 2.376l4.118-3.96c-2.693-2.534-6.099-4.039-10.217-4.039-8.395 0-15.207 6.811-15.207 15.207 0 8.475 6.811 15.207 15.207 15.207 8.791 0 14.652-6.099 14.652-14.811 0-1.030-0.158-1.742-0.238-2.534zM46.535 14.562v-4.356h-4.435v4.356h-4.435v4.435h4.435v4.435h4.435v-4.435h4.435v-4.435h-4.435z"></path>
</svg>
