<!-- Generated by IcoMoon.io -->
<svg version="1.1" xmlns="http://www.w3.org/2000/svg" width="34" height="32" viewBox="0 0 34 32">
<title>linkedin</title>
<path d="M8.568 31.335v-20.721h-6.445v20.721h6.445zM5.311 7.841c2.079 0 3.742-1.733 3.742-3.812 0-2.010-1.663-3.673-3.742-3.673-2.010 0-3.673 1.663-3.673 3.673 0 2.079 1.663 3.812 3.673 3.812zM32.616 31.335h0.069v-11.366c0-5.544-1.247-9.841-7.762-9.841-3.119 0-5.198 1.733-6.099 3.326h-0.069v-2.841h-6.168v20.721h6.445v-10.257c0-2.703 0.485-5.267 3.812-5.267s3.396 3.049 3.396 5.475v10.049h6.376z"></path>
</svg>
