<!-- Generated by IcoMoon.io -->
<svg version="1.1" xmlns="http://www.w3.org/2000/svg" width="38" height="32" viewBox="0 0 38 32">
<title>twitter</title>
<path d="M34.422 8.563c1.478-1.109 2.809-2.439 3.844-3.992-1.331 0.591-2.883 1.035-4.435 1.183 1.626-0.961 2.809-2.439 3.401-4.287-1.478 0.887-3.179 1.552-4.879 1.922-1.478-1.552-3.474-2.439-5.692-2.439-4.287 0-7.762 3.474-7.762 7.762 0 0.591 0.074 1.183 0.222 1.774-6.431-0.37-12.197-3.474-16.041-8.131-0.665 1.109-1.035 2.439-1.035 3.918 0 2.661 1.331 5.027 3.474 6.431-1.257-0.074-2.513-0.37-3.548-0.961v0.074c0 3.77 2.661 6.875 6.209 7.614-0.591 0.148-1.331 0.296-1.996 0.296-0.517 0-0.961-0.074-1.478-0.148 0.961 3.105 3.844 5.322 7.244 5.396-2.661 2.070-5.988 3.326-9.61 3.326-0.665 0-1.257-0.074-1.848-0.148 3.4 2.218 7.466 3.474 11.901 3.474 14.267 0 22.029-11.754 22.029-22.029 0-0.37 0-0.665 0-1.035z"></path>
</svg>
