<!-- Generated by IcoMoon.io -->
<svg version="1.1" xmlns="http://www.w3.org/2000/svg" width="32" height="32" viewBox="0 0 32 32">
<title>vector-1</title>
<path d="M31.974 25.751l-0.577-2.206c-0.126-0.483-0.527-0.834-1.023-0.895l-2.057-0.253c-0.051-0.006-0.098-0.031-0.133-0.068l-3.129-3.395c-0.046-0.050-0.076-0.112-0.086-0.179l-0.645-4.179c-0.039-0.254-0.276-0.428-0.531-0.389s-0.428 0.277-0.389 0.531l0.645 4.179c0.039 0.251 0.15 0.482 0.322 0.668l3.129 3.395c0.184 0.2 0.434 0.328 0.704 0.361l2.057 0.253c0.114 0.014 0.207 0.095 0.236 0.206l0.498 1.903-2.978-1.243c-0.216-0.090-0.423-0.202-0.616-0.334l-4.458-3.038c-0.124-0.085-0.216-0.211-0.258-0.355l-1.642-5.599c0.15-0.425 0.228-0.875 0.228-1.329 0 0-0.001-3.379-0.002-3.408 0.172 0.076 0.337 0.169 0.49 0.279l0.256 0.186c0.567 0.411 0.953 1.044 1.060 1.736 0.086 0.6 1.020 0.452 0.92-0.142-0.144-0.936-0.667-1.791-1.433-2.347l-0.256-0.186c-0.456-0.331-0.988-0.548-1.543-0.636-0.3-0.289-0.707-0.468-1.155-0.468h-1.262v-0.981c0-0.001-0-0.003-0-0.004 0.219-0.242 0.401-0.518 0.538-0.815 0.422-0.132 0.812-0.476 1.060-0.952 0.195-0.372 0.276-0.782 0.231-1.153-0.053-0.429-0.275-0.774-0.609-0.949-0.121-0.063-0.251-0.102-0.386-0.116v-1.335c0-1.222-0.994-2.216-2.216-2.216h-1.903c-1.222 0-2.216 0.994-2.216 2.216v1.332c-0.144 0.011-0.282 0.051-0.411 0.118-0.334 0.175-0.556 0.521-0.609 0.949-0.046 0.371 0.036 0.781 0.231 1.153 0.251 0.481 0.657 0.831 1.088 0.958 0.131 0.283 0.304 0.547 0.51 0.781v1.012h-1.262c-0.448 0-0.856 0.179-1.155 0.468-0.556 0.088-1.088 0.305-1.543 0.636l-0.256 0.186c-0.766 0.556-1.289 1.412-1.433 2.347l-0.974 6.318c-0.010 0.067-0.040 0.129-0.086 0.179l-3.129 3.395c-0.035 0.038-0.082 0.062-0.133 0.068l-2.057 0.253c-0.495 0.061-0.896 0.412-1.023 0.895l-0.577 2.206c-0.067 0.256-0.001 0.521 0.173 0.714-0.117 0.309-0.178 0.638-0.178 0.972 0 1.517 1.234 2.751 2.751 2.751h3.191c-0.117 0.254-0.149 0.544-0.082 0.824 0.117 0.554 0.778 0.874 1.285 0.621l1.783-0.831c0.397-0.185 0.819-0.297 1.256-0.334l3.316-0.28h15.708c1.517 0 2.751-1.234 2.751-2.751 0-0.334-0.062-0.662-0.179-0.972 0.174-0.193 0.24-0.458 0.173-0.714zM22.42 21.836l1.509 1.029c-0.875-0.121-1.759-0.182-2.644-0.182-0.006 0-0.013 0.001-0.019 0.001l-0.172-0.285c-0.629-1.040-0.962-2.232-0.962-3.448v-1.003c0-0.543 0.106-1.079 0.31-1.579l1.351 4.605c0.103 0.35 0.325 0.656 0.627 0.862zM14.585 8.685c0.414 0.345 0.92 0.518 1.427 0.518 0.497 0 0.994-0.166 1.403-0.498v0.799c0 0.373-0.304 0.677-0.677 0.677h-1.476c-0.373 0-0.677-0.304-0.677-0.677v-0.819zM15.061 1.21h1.903c0.709 0 1.285 0.577 1.285 1.285v0.020h-4.473v-0.020c0-0.709 0.577-1.285 1.285-1.285zM12.881 5.617c-0.106-0.204-0.155-0.425-0.132-0.609 0.013-0.247 0.193-0.303 0.358-0.206 0.144 0.070 0.314 0.061 0.45-0.024s0.218-0.234 0.218-0.394v-0.938h4.473v0.926c0 0.158 0.080 0.305 0.213 0.391s0.3 0.098 0.444 0.033c0.159-0.090 0.333-0.025 0.345 0.213 0.023 0.183-0.026 0.405-0.132 0.609-0.168 0.322-0.429 0.501-0.6 0.511-0.185 0.011-0.346 0.131-0.409 0.306-0.12 0.331-0.318 0.634-0.571 0.877l-0.628 0.601c-0.504 0.482-1.294 0.482-1.798 0l-0.628-0.601c-0.254-0.243-0.451-0.546-0.571-0.877-0.065-0.18-0.234-0.301-0.425-0.306-0.172-0.005-0.436-0.182-0.608-0.511zM12.393 9.729h1.278c0.11 0.78 0.782 1.382 1.592 1.382h1.476c0.81 0 1.482-0.602 1.592-1.382h1.278c0.404 0 0.733 0.329 0.733 0.733v3.322c0 0.548-0.147 1.087-0.427 1.559-0.466 0.788-0.712 1.689-0.712 2.605v1.003c0 1.385 0.379 2.744 1.096 3.929l0.173 0.285-0.61 0.087c-2.561 0.367-5.159 0.367-7.72 0l-0.61-0.087 0.172-0.285c0.717-1.185 1.096-2.544 1.096-3.929v-1.003c0-0.916-0.246-1.816-0.712-2.604-0.279-0.472-0.427-1.011-0.427-1.559v-3.322c-0-0.404 0.329-0.733 0.733-0.733zM10.906 22.399l-0.172 0.285c-0.006-0-0.013-0.001-0.019-0.001-0.885 0-1.769 0.062-2.645 0.183l1.511-1.030c0.302-0.206 0.524-0.512 0.627-0.862l1.351-4.605c0.203 0.5 0.31 1.036 0.31 1.579v1.003c0 1.216-0.333 2.408-0.962 3.448zM1.503 23.78c0.029-0.111 0.122-0.192 0.236-0.206l2.057-0.253c0.27-0.033 0.52-0.161 0.704-0.361l3.129-3.395c0.172-0.186 0.283-0.417 0.322-0.668l0.974-6.318c0.107-0.692 0.493-1.325 1.060-1.736l0.256-0.186c0.153-0.111 0.318-0.204 0.49-0.28-0.001 0.028-0.002 3.408-0.002 3.408 0 0.454 0.078 0.904 0.228 1.329l-1.642 5.599c-0.042 0.144-0.134 0.27-0.258 0.355l-4.458 3.038c-0.193 0.132-0.4 0.244-0.616 0.334l-2.978 1.244 0.498-1.903zM0.951 27.437c0-0.279 0.065-0.552 0.186-0.8l2.847-1.189 1.572-0.085c1.288-0.070 2.579 0.040 3.837 0.325 0.078 0.014 0.504 0.125 0.575 0.119 0.212 0 0.404-0.146 0.453-0.362 0.057-0.251-0.1-0.5-0.351-0.557l-0.472-0.107c-1.25-0.284-2.531-0.404-3.811-0.359l0.329-0.224c1.45-0.374 2.943-0.57 4.441-0.583 0.001 0.003 0.002 0.006 0.004 0.010 0.109 0.23 0.325 0.39 0.577 0.426l0.869 0.125c1.324 0.19 2.658 0.285 3.992 0.285s2.668-0.095 3.992-0.285l0.869-0.125c0.252-0.036 0.468-0.195 0.577-0.426 0.002-0.003 0.002-0.006 0.004-0.010 1.498 0.013 2.991 0.209 4.441 0.583l0.329 0.224c-1.28-0.045-2.561 0.076-3.811 0.359l-6.401 1.452-2.155-0.489c-0.686-0.385-1.554-0.254-2.093 0.328l-0.823 0.888c-0.085 0.092-0.192 0.162-0.309 0.204l-1.989 0.713c-0.408 0.146-0.773 0.372-1.086 0.672l-0.74 0.709h-4.033c-1.004 0-1.821-0.817-1.821-1.821zM10.127 29.54c-0.546 0.046-1.075 0.186-1.571 0.418l-1.772 0.827c-0.023-0.113 0.014-0.231 0.097-0.311l1.308-1.253c0.218-0.209 0.472-0.366 0.757-0.468l1.989-0.713c0.257-0.092 0.492-0.247 0.678-0.448l0.823-0.888c0.267-0.291 0.708-0.327 1.028-0.106l0.737 0.46c0.218 0.136 0.454 0.245 0.699 0.322l0.031 0.010v1.746l-4.804 0.405zM29.228 29.258h-13.367v-2.040l6.745-1.53c1.258-0.285 2.549-0.395 3.837-0.325 0 0 1.544 0.082 1.562 0.081l2.857 1.193c0.122 0.249 0.186 0.522 0.186 0.8 0 1.004-0.817 1.821-1.821 1.821z"></path>
</svg>
