<!-- Generated by IcoMoon.io -->
<svg version="1.1" xmlns="http://www.w3.org/2000/svg" width="28" height="32" viewBox="0 0 28 32">
<title>vector-2</title>
<path d="M2.692 0.538h-2.062c-0.137 0-0.268 0.054-0.364 0.151s-0.151 0.228-0.151 0.364v3.608c0 0.137 0.054 0.268 0.151 0.364s0.228 0.151 0.364 0.151h2.062c0.137 0 0.268-0.054 0.364-0.151s0.151-0.228 0.151-0.364v-0.515h0.517c-0.001 0.065 0.011 0.13 0.035 0.191l1.811 4.528c0.202 0.509 0.562 0.939 1.027 1.228l3.31 2.068v2.767l-2.019 13.122-2.369 1.422c-0.076 0.046-0.139 0.111-0.183 0.188s-0.067 0.165-0.067 0.254v1.031c0 0.137 0.054 0.268 0.151 0.364s0.228 0.151 0.364 0.151h4.638c0.137 0 0.268-0.054 0.364-0.151s0.151-0.228 0.151-0.364v-0.951l3.092-9.719 3.092 9.719v0.951c0 0.137 0.054 0.268 0.151 0.364s0.228 0.151 0.364 0.151h4.638c0.137 0 0.268-0.054 0.364-0.151s0.151-0.228 0.151-0.364v-1.031c0-0.089-0.023-0.176-0.067-0.254s-0.107-0.142-0.183-0.188l-2.369-1.422-2.019-13.122v-2.767l3.31-2.068c0.465-0.289 0.825-0.72 1.027-1.228l1.811-4.528c0.024-0.061 0.036-0.126 0.035-0.191h0.517v0.515c0 0.137 0.054 0.268 0.151 0.364s0.228 0.151 0.364 0.151h2.062c0.137 0 0.268-0.054 0.364-0.151s0.151-0.228 0.151-0.364v-3.608c0-0.137-0.054-0.268-0.151-0.364s-0.228-0.151-0.364-0.151h-2.062c-0.137 0-0.268 0.054-0.364 0.151s-0.151 0.228-0.151 0.364v0.515h-4.638v-0.515c0-0.137-0.054-0.268-0.151-0.364s-0.228-0.151-0.364-0.151h-2.062c-0.137 0-0.268 0.054-0.364 0.151s-0.151 0.228-0.151 0.364v3.608c0 0.137 0.054 0.268 0.151 0.364s0.228 0.151 0.364 0.151h2.062c0.137 0 0.268-0.054 0.364-0.151s0.151-0.228 0.151-0.364v-0.515h0.515v0.373l-1.363 2.271-3.276 0.819v-2.276c0-0.308-0.084-0.61-0.242-0.875s-0.385-0.481-0.657-0.626c-0.272-0.145-0.578-0.214-0.885-0.199s-0.606 0.113-0.862 0.284l-1.247 0.831c-0.071 0.047-0.129 0.111-0.169 0.186s-0.061 0.158-0.061 0.243v2.432l-3.276-0.819-1.363-2.271v-0.373h0.515v0.515c0 0.137 0.054 0.268 0.151 0.364s0.228 0.151 0.364 0.151h2.062c0.137 0 0.268-0.054 0.364-0.151s0.151-0.228 0.151-0.364v-3.608c-0-0.137-0.054-0.268-0.151-0.364s-0.228-0.151-0.364-0.151h-2.062c-0.137 0-0.268 0.054-0.364 0.151s-0.151 0.228-0.151 0.364v0.515h-4.638v-0.515c0-0.137-0.054-0.268-0.151-0.364s-0.228-0.151-0.364-0.151zM2.177 4.146h-1.031v-2.577h1.031v2.577zM25.885 1.569h1.031v2.577h-1.031v-2.577zM19.185 4.146h-1.031v-2.577h1.031v2.577zM8.877 1.569h1.031v2.577h-1.031v-2.577zM6.3 30.431v-0.224l2.030-1.218 1.578 1.184v0.258h-3.608zM10.152 29.068l-1.234-0.925 1.067-6.935 2.412 0.804-2.245 7.056zM14.031 18.062c-0.109 0-0.216 0.035-0.304 0.099s-0.154 0.156-0.187 0.26l-0.83 2.609-2.566-0.855 0.721-4.689h6.331l0.721 4.689-2.566 0.855-0.83-2.609c-0.033-0.104-0.099-0.195-0.187-0.26s-0.195-0.099-0.304-0.099zM15.664 22.012l2.412-0.804 1.067 6.935-1.234 0.925-2.245-7.056zM21.762 30.207v0.224h-3.608v-0.258l1.578-1.184 2.030 1.218zM17.365 11.44c-0.074 0.046-0.135 0.111-0.178 0.187s-0.065 0.162-0.065 0.25v2.577h-6.185v-2.577c0-0.087-0.022-0.173-0.065-0.25s-0.103-0.141-0.178-0.187l-1.779-1.112 0.88-2.2 2.42 0.605c0.177 0.327 0.438 0.6 0.758 0.791s0.684 0.291 1.056 0.291c0.372 0 0.736-0.101 1.056-0.291s0.581-0.464 0.758-0.791l2.42-0.605 0.88 2.2-1.779 1.112zM13 7.754v-1.031h2.062v1.031c0 0.273-0.109 0.536-0.302 0.729s-0.455 0.302-0.729 0.302-0.536-0.109-0.729-0.302c-0.193-0.193-0.302-0.455-0.302-0.729zM24.854 3.115h-0.757l-0.129-0.515h0.886v0.515zM20.215 3.115v-0.515h0.515v0.515h-0.515zM19.825 7.739c0.133-0.033 0.247-0.118 0.317-0.235l1.546-2.577c0.048-0.080 0.073-0.172 0.073-0.265v-2.062h1.144l0.377 1.509-1.749 4.374c-0.121 0.305-0.337 0.563-0.616 0.737l-0.885 0.553-0.759-1.897 0.552-0.138zM14.018 4.774c0.101-0.067 0.219-0.106 0.34-0.112s0.242 0.021 0.349 0.079c0.107 0.057 0.197 0.143 0.259 0.247s0.095 0.223 0.095 0.345v0.359h-2.062v-0.24l1.018-0.678zM7.846 3.115h-0.515v-0.515h0.515v0.515zM5.156 2.6h1.144v2.062c0 0.093 0.025 0.185 0.073 0.265l1.546 2.577c0.070 0.117 0.184 0.202 0.317 0.235l0.552 0.138-0.759 1.897-0.885-0.553c-0.279-0.174-0.495-0.432-0.616-0.737l-1.749-4.374 0.377-1.509zM4.094 2.6l-0.129 0.515h-0.757v-0.515h0.886z"></path>
</svg>
