<!-- Generated by IcoMoon.io -->
<svg version="1.1" xmlns="http://www.w3.org/2000/svg" width="34" height="32" viewBox="0 0 34 32">
<title>vector-3</title>
<path d="M33.602 29.58l-2.572-1.543-0.884-8.396c-0.074-0.704-0.367-1.366-0.838-1.894s-1.096-0.894-1.787-1.047l-7.709-1.713v-2.128l0.364-0.364c0.488-0.488 0.761-1.149 0.761-1.838s-0.274-1.351-0.761-1.838l-1.36-1.36c0.312-0.263 0.563-0.592 0.735-0.963s0.261-0.774 0.261-1.183v-2.25c0-0.585-0.182-1.156-0.521-1.632s-0.819-0.835-1.372-1.026c-0.553-0.191-1.152-0.205-1.713-0.039s-1.057 0.502-1.417 0.963l-0.624-0.312c-0.294-0.147-0.62-0.216-0.949-0.202s-0.647 0.113-0.927 0.286c-0.28 0.173-0.51 0.414-0.67 0.701s-0.244 0.61-0.244 0.939v1.311c0.002 0.683-0.132 1.36-0.393 1.991s-0.645 1.204-1.13 1.686c-0.079 0.079-0.132 0.179-0.154 0.288s-0.011 0.222 0.032 0.325c0.043 0.103 0.115 0.191 0.207 0.252s0.201 0.095 0.313 0.095h1.688c0.577-0 1.144-0.148 1.647-0.43s0.926-0.688 1.228-1.179c0.146 0.181 0.314 0.343 0.5 0.483-0.209 0.157-0.395 0.342-0.552 0.551l-1.866 2.488c-0.621 0.828-0.956 1.834-0.956 2.869s0.336 2.041 0.956 2.869l0.169 0.225v2.159l-2.093 6.279h-10.282c-0.149 0-0.292 0.059-0.398 0.165s-0.165 0.249-0.165 0.398v5.625c0 0.149 0.059 0.292 0.165 0.398s0.249 0.165 0.398 0.165h1.125c0.097 0 0.193-0.025 0.277-0.073s0.155-0.117 0.205-0.2l1.503-2.505 8.505 0.895c0.652 0.069 1.309-0.054 1.892-0.353s1.067-0.761 1.392-1.329l3.427-5.998h6.525l1.586 7.931v1.069c0 0.149 0.059 0.292 0.165 0.398s0.249 0.165 0.398 0.165h5.625c0.149 0 0.292-0.059 0.398-0.165s0.165-0.249 0.165-0.398v-1.125c0-0.097-0.025-0.193-0.073-0.277s-0.117-0.155-0.2-0.205zM19.813 10.656c0 0.194-0.037 0.386-0.111 0.565s-0.183 0.341-0.32 0.478l-0.528 0.528c-0.105 0.105-0.165 0.249-0.165 0.398v2.25h-1.621l-0.537-1.074 2.298-3.218c0.234-0.327 0.376-0.71 0.412-1.111l0.141 0.141c0.137 0.137 0.246 0.299 0.32 0.478s0.112 0.371 0.111 0.565zM17 1.375c0.349 0 0.689 0.109 0.974 0.31s0.5 0.486 0.617 0.815h-1.591c-0.149 0-0.292 0.059-0.398 0.165l-0.96 0.96h-0.329v-0.563c0.001-0.447 0.178-0.876 0.495-1.193s0.745-0.494 1.193-0.495zM11.938 7.563h-0.5c0.696-1.039 1.066-2.261 1.062-3.511v-1.311c0-0.137 0.035-0.271 0.102-0.391s0.163-0.22 0.279-0.292 0.249-0.113 0.386-0.119c0.137-0.006 0.273 0.023 0.395 0.084l0.622 0.311c-0.064 0.238-0.096 0.483-0.096 0.729v2.25c-0.001 0.597-0.238 1.168-0.66 1.59s-0.994 0.659-1.59 0.66zM15.313 4.75h0.563c0.149 0 0.292-0.059 0.398-0.165l0.96-0.96h1.454v1.687c0 0.448-0.178 0.877-0.494 1.193s-0.746 0.494-1.193 0.494-0.877-0.178-1.193-0.494c-0.316-0.316-0.494-0.746-0.494-1.193v-0.563zM13.794 11.275l1.866-2.488c0.155-0.205 0.355-0.371 0.584-0.486s0.483-0.175 0.74-0.175c0.21 0 0.415 0.058 0.594 0.167s0.325 0.266 0.421 0.452c0.096 0.186 0.139 0.396 0.123 0.605s-0.088 0.41-0.21 0.581l-2.495 3.493c-0.059 0.083-0.095 0.181-0.103 0.283s0.012 0.204 0.058 0.296l1.688 3.375c0.067 0.133 0.184 0.235 0.325 0.282l1.562 0.52 0.182 0.182-0.226 0.451h-2.746l-2.362-3.15c-0.475-0.633-0.731-1.403-0.731-2.194s0.257-1.561 0.731-2.194zM15.425 19.712c0.052 0.070 0.12 0.127 0.198 0.166s0.164 0.059 0.252 0.059h3.375c0.104 0 0.207-0.029 0.296-0.084s0.161-0.134 0.207-0.227l0.563-1.125c0.053-0.106 0.071-0.225 0.052-0.342s-0.074-0.224-0.157-0.308l-0.563-0.563c-0.062-0.062-0.137-0.108-0.22-0.136l-1.466-0.489-0.332-0.665h1.559l3.999 0.889v4.174h-6.75c-0.597-0.001-1.168-0.238-1.59-0.66s-0.659-0.994-0.66-1.59v-0.75l1.237 1.65zM1.494 30.625h-0.244v-4.5h1.226l0.429 2.147-1.412 2.353zM14.61 27.627c-0.217 0.379-0.539 0.687-0.928 0.886s-0.827 0.281-1.261 0.235l-8.45-0.889-0.347-1.734h7.751c0.118 0 0.233-0.037 0.329-0.106s0.167-0.166 0.205-0.278l0.518-1.554 3.227 1.614-1.044 1.827zM16.213 24.821l-3.427-1.713 0.82-2.461c0.306 0.473 0.725 0.861 1.22 1.13s1.048 0.41 1.611 0.411h1.281l-1.505 2.634zM26.552 21.515c-0.026-0.128-0.094-0.242-0.195-0.325s-0.227-0.128-0.357-0.128h-1.688v-3.924l2.965 0.659c0.46 0.102 0.877 0.346 1.191 0.698s0.509 0.794 0.558 1.263l0.876 8.319-1.82 1.092-1.531-7.655zM32.75 30.625h-4.5v-0.244l2.25-1.35 2.25 1.35v0.244z"></path>
</svg>
