<!-- Generated by IcoMoon.io -->
<svg version="1.1" xmlns="http://www.w3.org/2000/svg" width="32" height="32" viewBox="0 0 32 32">
<title>vector-4</title>
<path d="M13.791 22.787c0.185 0.243 0.423 0.44 0.696 0.576s0.574 0.207 0.879 0.208c0.216 0 0.431-0.035 0.635-0.105 0.204 0.070 0.419 0.105 0.635 0.105 0.305-0.001 0.606-0.072 0.879-0.208s0.511-0.333 0.696-0.576l1.932-2.557c0.701-0.931 1.081-2.064 1.083-3.229-0-0.563-0.145-1.116-0.421-1.606s-0.674-0.901-1.155-1.192c-0.481-0.292-1.030-0.454-1.592-0.472s-1.12 0.11-1.619 0.37v-0.559h0.392c0.577-0 1.13-0.23 1.538-0.637s0.637-0.961 0.637-1.538c0-0.116-0.046-0.227-0.128-0.309s-0.193-0.128-0.309-0.128h-0.83c-0.345 0-0.684 0.083-0.991 0.24s-0.571 0.386-0.772 0.666c-0.211-0.281-0.485-0.509-0.799-0.666s-0.661-0.239-1.012-0.239c-0.116 0-0.227 0.046-0.309 0.128s-0.128 0.193-0.128 0.309c0 0.116 0.046 0.227 0.128 0.309s0.193 0.128 0.309 0.128c0.371 0 0.726 0.148 0.989 0.41s0.41 0.618 0.41 0.989v0.897c-0.499-0.261-1.056-0.388-1.619-0.37s-1.111 0.18-1.592 0.472c-0.481 0.291-0.879 0.702-1.155 1.192s-0.421 1.043-0.421 1.606c0.002 1.165 0.382 2.299 1.083 3.23l1.932 2.557zM17.738 11.804h0.317c-0.090 0.252-0.256 0.47-0.475 0.624s-0.48 0.237-0.748 0.237h-0.317c0.090-0.252 0.256-0.47 0.475-0.624s0.48-0.237 0.748-0.237v-0zM14.048 14.603c0.615-0.001 1.206 0.236 1.65 0.661 0.082 0.076 0.19 0.118 0.302 0.118s0.219-0.042 0.301-0.118c0.34-0.324 0.767-0.541 1.229-0.624s0.938-0.029 1.369 0.156c0.431 0.185 0.799 0.493 1.057 0.885s0.395 0.851 0.395 1.32c-0.002 0.975-0.32 1.923-0.906 2.702l-1.932 2.557c-0.153 0.196-0.367 0.336-0.607 0.397s-0.495 0.040-0.723-0.059c-0.057-0.026-0.119-0.039-0.181-0.039s-0.124 0.013-0.181 0.039c-0.228 0.099-0.482 0.12-0.723 0.059s-0.455-0.201-0.607-0.397l-1.932-2.557c-0.586-0.779-0.904-1.727-0.907-2.702 0.001-0.636 0.254-1.245 0.703-1.694s1.059-0.702 1.694-0.703z"></path>
<path d="M25.667 2.5l-6.075 0.002-0.672-2.192c-0.027-0.089-0.083-0.168-0.158-0.223s-0.166-0.086-0.26-0.086h-5.004c-0.094-0-0.185 0.030-0.26 0.086s-0.131 0.134-0.158 0.224l-0.672 2.192-6.074-0.002c-0.447 0.001-0.876 0.178-1.193 0.495s-0.494 0.745-0.495 1.193v26.125c0.001 0.447 0.178 0.876 0.495 1.193s0.745 0.494 1.193 0.495h19.334c0.447-0 0.876-0.178 1.193-0.495s0.494-0.745 0.495-1.193v-26.125c-0-0.447-0.178-0.876-0.495-1.193s-0.745-0.494-1.193-0.495zM23.979 5.875v22.75h-15.958v-22.75h15.958zM12.731 3.377c0.094 0 0.185-0.030 0.261-0.085s0.131-0.134 0.158-0.224l0.671-2.193h4.357l0.672 2.193c0.027 0.090 0.083 0.168 0.158 0.224s0.166 0.086 0.26 0.086l2.064-0.002v1.625h-10.666v-1.625l2.064 0.002zM26.479 30.312c-0 0.215-0.086 0.422-0.238 0.574s-0.359 0.238-0.574 0.238h-19.334c-0.215-0-0.422-0.086-0.574-0.238s-0.238-0.359-0.238-0.574v-26.125c0-0.215 0.086-0.422 0.238-0.574s0.359-0.238 0.574-0.238h3.459v1.625h-2.208c-0.116 0-0.227 0.046-0.309 0.128s-0.128 0.193-0.128 0.309v23.625c0 0.116 0.046 0.227 0.128 0.309s0.193 0.128 0.309 0.128h16.833c0.116 0 0.227-0.046 0.309-0.128s0.128-0.193 0.128-0.309v-23.625c0-0.116-0.046-0.227-0.128-0.309s-0.193-0.128-0.309-0.128h-2.208v-1.625h3.459c0.215 0 0.422 0.086 0.574 0.238s0.238 0.359 0.238 0.574v26.125z"></path>
<path stroke-linejoin="miter" stroke-linecap="butt" stroke-miterlimit="4" stroke-width="0.5079" stroke="#000" fill="#000" d="M15.328 3.375h1.344c0.116 0 0.227-0.046 0.309-0.128s0.128-0.193 0.128-0.309-0.046-0.227-0.128-0.309c-0.082-0.082-0.193-0.128-0.309-0.128h-1.344c-0.116 0-0.227 0.046-0.309 0.128s-0.128 0.193-0.128 0.309 0.046 0.227 0.128 0.309c0.082 0.082 0.193 0.128 0.309 0.128z"></path>
</svg>
