<svg aria-hidden="true" style="position: absolute; width: 0; height: 0; overflow: hidden;" version="1.1" xmlns="http://www.w3.org/2000/svg" xmlns:xlink="http://www.w3.org/1999/xlink">
<defs>
<symbol id="icon-like" viewBox="0 0 39 32">
<path stroke-linejoin="miter" stroke-linecap="butt" stroke-miterlimit="4" stroke-width="3.5556" d="M18.056 5.577l1.5 2.357 1.5-2.357c1.383-2.173 3.831-3.577 6.648-3.577 4.396 0 8 3.604 8 8 0 1.91-0.885 3.986-2.457 6.129-1.558 2.125-3.675 4.156-5.854 5.939-2.17 1.776-4.349 3.262-5.991 4.307-0.747 0.475-1.379 0.857-1.843 1.13-0.465-0.276-1.098-0.66-1.846-1.139-1.642-1.051-3.822-2.546-5.993-4.327-2.18-1.788-4.298-3.823-5.857-5.946-1.574-2.143-2.456-4.207-2.456-6.094 0-4.396 3.604-8 8-8 2.818 0 5.265 1.403 6.648 3.577z"></path>
</symbol>
<symbol id="icon-vector-4" viewBox="0 0 32 32">
<path d="M13.791 22.787c0.185 0.243 0.423 0.44 0.696 0.576s0.574 0.207 0.879 0.208c0.216 0 0.431-0.035 0.635-0.105 0.204 0.070 0.419 0.105 0.635 0.105 0.305-0.001 0.606-0.072 0.879-0.208s0.511-0.333 0.696-0.576l1.932-2.557c0.701-0.931 1.081-2.064 1.083-3.229-0-0.563-0.145-1.116-0.421-1.606s-0.674-0.901-1.155-1.192c-0.481-0.292-1.030-0.454-1.592-0.472s-1.12 0.11-1.619 0.37v-0.559h0.392c0.577-0 1.13-0.23 1.538-0.637s0.637-0.961 0.637-1.538c0-0.116-0.046-0.227-0.128-0.309s-0.193-0.128-0.309-0.128h-0.83c-0.345 0-0.684 0.083-0.991 0.24s-0.571 0.386-0.772 0.666c-0.211-0.281-0.485-0.509-0.799-0.666s-0.661-0.239-1.012-0.239c-0.116 0-0.227 0.046-0.309 0.128s-0.128 0.193-0.128 0.309c0 0.116 0.046 0.227 0.128 0.309s0.193 0.128 0.309 0.128c0.371 0 0.726 0.148 0.989 0.41s0.41 0.618 0.41 0.989v0.897c-0.499-0.261-1.056-0.388-1.619-0.37s-1.111 0.18-1.592 0.472c-0.481 0.291-0.879 0.702-1.155 1.192s-0.421 1.043-0.421 1.606c0.002 1.165 0.382 2.299 1.083 3.23l1.932 2.557zM17.738 11.804h0.317c-0.090 0.252-0.256 0.47-0.475 0.624s-0.48 0.237-0.748 0.237h-0.317c0.090-0.252 0.256-0.47 0.475-0.624s0.48-0.237 0.748-0.237v-0zM14.048 14.603c0.615-0.001 1.206 0.236 1.65 0.661 0.082 0.076 0.19 0.118 0.302 0.118s0.219-0.042 0.301-0.118c0.34-0.324 0.767-0.541 1.229-0.624s0.938-0.029 1.369 0.156c0.431 0.185 0.799 0.493 1.057 0.885s0.395 0.851 0.395 1.32c-0.002 0.975-0.32 1.923-0.906 2.702l-1.932 2.557c-0.153 0.196-0.367 0.336-0.607 0.397s-0.495 0.040-0.723-0.059c-0.057-0.026-0.119-0.039-0.181-0.039s-0.124 0.013-0.181 0.039c-0.228 0.099-0.482 0.12-0.723 0.059s-0.455-0.201-0.607-0.397l-1.932-2.557c-0.586-0.779-0.904-1.727-0.907-2.702 0.001-0.636 0.254-1.245 0.703-1.694s1.059-0.702 1.694-0.703z"></path>
<path d="M25.667 2.5l-6.075 0.002-0.672-2.192c-0.027-0.089-0.083-0.168-0.158-0.223s-0.166-0.086-0.26-0.086h-5.004c-0.094-0-0.185 0.030-0.26 0.086s-0.131 0.134-0.158 0.224l-0.672 2.192-6.074-0.002c-0.447 0.001-0.876 0.178-1.193 0.495s-0.494 0.745-0.495 1.193v26.125c0.001 0.447 0.178 0.876 0.495 1.193s0.745 0.494 1.193 0.495h19.334c0.447-0 0.876-0.178 1.193-0.495s0.494-0.745 0.495-1.193v-26.125c-0-0.447-0.178-0.876-0.495-1.193s-0.745-0.494-1.193-0.495zM23.979 5.875v22.75h-15.958v-22.75h15.958zM12.731 3.377c0.094 0 0.185-0.030 0.261-0.085s0.131-0.134 0.158-0.224l0.671-2.193h4.357l0.672 2.193c0.027 0.090 0.083 0.168 0.158 0.224s0.166 0.086 0.26 0.086l2.064-0.002v1.625h-10.666v-1.625l2.064 0.002zM26.479 30.312c-0 0.215-0.086 0.422-0.238 0.574s-0.359 0.238-0.574 0.238h-19.334c-0.215-0-0.422-0.086-0.574-0.238s-0.238-0.359-0.238-0.574v-26.125c0-0.215 0.086-0.422 0.238-0.574s0.359-0.238 0.574-0.238h3.459v1.625h-2.208c-0.116 0-0.227 0.046-0.309 0.128s-0.128 0.193-0.128 0.309v23.625c0 0.116 0.046 0.227 0.128 0.309s0.193 0.128 0.309 0.128h16.833c0.116 0 0.227-0.046 0.309-0.128s0.128-0.193 0.128-0.309v-23.625c0-0.116-0.046-0.227-0.128-0.309s-0.193-0.128-0.309-0.128h-2.208v-1.625h3.459c0.215 0 0.422 0.086 0.574 0.238s0.238 0.359 0.238 0.574v26.125z"></path>
<path stroke-linejoin="miter" stroke-linecap="butt" stroke-miterlimit="4" stroke-width="0.5079" d="M15.328 3.375h1.344c0.116 0 0.227-0.046 0.309-0.128s0.128-0.193 0.128-0.309-0.046-0.227-0.128-0.309c-0.082-0.082-0.193-0.128-0.309-0.128h-1.344c-0.116 0-0.227 0.046-0.309 0.128s-0.128 0.193-0.128 0.309 0.046 0.227 0.128 0.309c0.082 0.082 0.193 0.128 0.309 0.128z"></path>
</symbol>
<symbol id="icon-vector-2" viewBox="0 0 28 32">
<path d="M2.692 0.538h-2.062c-0.137 0-0.268 0.054-0.364 0.151s-0.151 0.228-0.151 0.364v3.608c0 0.137 0.054 0.268 0.151 0.364s0.228 0.151 0.364 0.151h2.062c0.137 0 0.268-0.054 0.364-0.151s0.151-0.228 0.151-0.364v-0.515h0.517c-0.001 0.065 0.011 0.13 0.035 0.191l1.811 4.528c0.202 0.509 0.562 0.939 1.027 1.228l3.31 2.068v2.767l-2.019 13.122-2.369 1.422c-0.076 0.046-0.139 0.111-0.183 0.188s-0.067 0.165-0.067 0.254v1.031c0 0.137 0.054 0.268 0.151 0.364s0.228 0.151 0.364 0.151h4.638c0.137 0 0.268-0.054 0.364-0.151s0.151-0.228 0.151-0.364v-0.951l3.092-9.719 3.092 9.719v0.951c0 0.137 0.054 0.268 0.151 0.364s0.228 0.151 0.364 0.151h4.638c0.137 0 0.268-0.054 0.364-0.151s0.151-0.228 0.151-0.364v-1.031c0-0.089-0.023-0.176-0.067-0.254s-0.107-0.142-0.183-0.188l-2.369-1.422-2.019-13.122v-2.767l3.31-2.068c0.465-0.289 0.825-0.72 1.027-1.228l1.811-4.528c0.024-0.061 0.036-0.126 0.035-0.191h0.517v0.515c0 0.137 0.054 0.268 0.151 0.364s0.228 0.151 0.364 0.151h2.062c0.137 0 0.268-0.054 0.364-0.151s0.151-0.228 0.151-0.364v-3.608c0-0.137-0.054-0.268-0.151-0.364s-0.228-0.151-0.364-0.151h-2.062c-0.137 0-0.268 0.054-0.364 0.151s-0.151 0.228-0.151 0.364v0.515h-4.638v-0.515c0-0.137-0.054-0.268-0.151-0.364s-0.228-0.151-0.364-0.151h-2.062c-0.137 0-0.268 0.054-0.364 0.151s-0.151 0.228-0.151 0.364v3.608c0 0.137 0.054 0.268 0.151 0.364s0.228 0.151 0.364 0.151h2.062c0.137 0 0.268-0.054 0.364-0.151s0.151-0.228 0.151-0.364v-0.515h0.515v0.373l-1.363 2.271-3.276 0.819v-2.276c0-0.308-0.084-0.61-0.242-0.875s-0.385-0.481-0.657-0.626c-0.272-0.145-0.578-0.214-0.885-0.199s-0.606 0.113-0.862 0.284l-1.247 0.831c-0.071 0.047-0.129 0.111-0.169 0.186s-0.061 0.158-0.061 0.243v2.432l-3.276-0.819-1.363-2.271v-0.373h0.515v0.515c0 0.137 0.054 0.268 0.151 0.364s0.228 0.151 0.364 0.151h2.062c0.137 0 0.268-0.054 0.364-0.151s0.151-0.228 0.151-0.364v-3.608c-0-0.137-0.054-0.268-0.151-0.364s-0.228-0.151-0.364-0.151h-2.062c-0.137 0-0.268 0.054-0.364 0.151s-0.151 0.228-0.151 0.364v0.515h-4.638v-0.515c0-0.137-0.054-0.268-0.151-0.364s-0.228-0.151-0.364-0.151zM2.177 4.146h-1.031v-2.577h1.031v2.577zM25.885 1.569h1.031v2.577h-1.031v-2.577zM19.185 4.146h-1.031v-2.577h1.031v2.577zM8.877 1.569h1.031v2.577h-1.031v-2.577zM6.3 30.431v-0.224l2.030-1.218 1.578 1.184v0.258h-3.608zM10.152 29.068l-1.234-0.925 1.067-6.935 2.412 0.804-2.245 7.056zM14.031 18.062c-0.109 0-0.216 0.035-0.304 0.099s-0.154 0.156-0.187 0.26l-0.83 2.609-2.566-0.855 0.721-4.689h6.331l0.721 4.689-2.566 0.855-0.83-2.609c-0.033-0.104-0.099-0.195-0.187-0.26s-0.195-0.099-0.304-0.099zM15.664 22.012l2.412-0.804 1.067 6.935-1.234 0.925-2.245-7.056zM21.762 30.207v0.224h-3.608v-0.258l1.578-1.184 2.030 1.218zM17.365 11.44c-0.074 0.046-0.135 0.111-0.178 0.187s-0.065 0.162-0.065 0.25v2.577h-6.185v-2.577c0-0.087-0.022-0.173-0.065-0.25s-0.103-0.141-0.178-0.187l-1.779-1.112 0.88-2.2 2.42 0.605c0.177 0.327 0.438 0.6 0.758 0.791s0.684 0.291 1.056 0.291c0.372 0 0.736-0.101 1.056-0.291s0.581-0.464 0.758-0.791l2.42-0.605 0.88 2.2-1.779 1.112zM13 7.754v-1.031h2.062v1.031c0 0.273-0.109 0.536-0.302 0.729s-0.455 0.302-0.729 0.302-0.536-0.109-0.729-0.302c-0.193-0.193-0.302-0.455-0.302-0.729zM24.854 3.115h-0.757l-0.129-0.515h0.886v0.515zM20.215 3.115v-0.515h0.515v0.515h-0.515zM19.825 7.739c0.133-0.033 0.247-0.118 0.317-0.235l1.546-2.577c0.048-0.080 0.073-0.172 0.073-0.265v-2.062h1.144l0.377 1.509-1.749 4.374c-0.121 0.305-0.337 0.563-0.616 0.737l-0.885 0.553-0.759-1.897 0.552-0.138zM14.018 4.774c0.101-0.067 0.219-0.106 0.34-0.112s0.242 0.021 0.349 0.079c0.107 0.057 0.197 0.143 0.259 0.247s0.095 0.223 0.095 0.345v0.359h-2.062v-0.24l1.018-0.678zM7.846 3.115h-0.515v-0.515h0.515v0.515zM5.156 2.6h1.144v2.062c0 0.093 0.025 0.185 0.073 0.265l1.546 2.577c0.070 0.117 0.184 0.202 0.317 0.235l0.552 0.138-0.759 1.897-0.885-0.553c-0.279-0.174-0.495-0.432-0.616-0.737l-1.749-4.374 0.377-1.509zM4.094 2.6l-0.129 0.515h-0.757v-0.515h0.886z"></path>
</symbol>
<symbol id="icon-vector-3" viewBox="0 0 34 32">
<path d="M33.602 29.58l-2.572-1.543-0.884-8.396c-0.074-0.704-0.367-1.366-0.838-1.894s-1.096-0.894-1.787-1.047l-7.709-1.713v-2.128l0.364-0.364c0.488-0.488 0.761-1.149 0.761-1.838s-0.274-1.351-0.761-1.838l-1.36-1.36c0.312-0.263 0.563-0.592 0.735-0.963s0.261-0.774 0.261-1.183v-2.25c0-0.585-0.182-1.156-0.521-1.632s-0.819-0.835-1.372-1.026c-0.553-0.191-1.152-0.205-1.713-0.039s-1.057 0.502-1.417 0.963l-0.624-0.312c-0.294-0.147-0.62-0.216-0.949-0.202s-0.647 0.113-0.927 0.286c-0.28 0.173-0.51 0.414-0.67 0.701s-0.244 0.61-0.244 0.939v1.311c0.002 0.683-0.132 1.36-0.393 1.991s-0.645 1.204-1.13 1.686c-0.079 0.079-0.132 0.179-0.154 0.288s-0.011 0.222 0.032 0.325c0.043 0.103 0.115 0.191 0.207 0.252s0.201 0.095 0.313 0.095h1.688c0.577-0 1.144-0.148 1.647-0.43s0.926-0.688 1.228-1.179c0.146 0.181 0.314 0.343 0.5 0.483-0.209 0.157-0.395 0.342-0.552 0.551l-1.866 2.488c-0.621 0.828-0.956 1.834-0.956 2.869s0.336 2.041 0.956 2.869l0.169 0.225v2.159l-2.093 6.279h-10.282c-0.149 0-0.292 0.059-0.398 0.165s-0.165 0.249-0.165 0.398v5.625c0 0.149 0.059 0.292 0.165 0.398s0.249 0.165 0.398 0.165h1.125c0.097 0 0.193-0.025 0.277-0.073s0.155-0.117 0.205-0.2l1.503-2.505 8.505 0.895c0.652 0.069 1.309-0.054 1.892-0.353s1.067-0.761 1.392-1.329l3.427-5.998h6.525l1.586 7.931v1.069c0 0.149 0.059 0.292 0.165 0.398s0.249 0.165 0.398 0.165h5.625c0.149 0 0.292-0.059 0.398-0.165s0.165-0.249 0.165-0.398v-1.125c0-0.097-0.025-0.193-0.073-0.277s-0.117-0.155-0.2-0.205zM19.813 10.656c0 0.194-0.037 0.386-0.111 0.565s-0.183 0.341-0.32 0.478l-0.528 0.528c-0.105 0.105-0.165 0.249-0.165 0.398v2.25h-1.621l-0.537-1.074 2.298-3.218c0.234-0.327 0.376-0.71 0.412-1.111l0.141 0.141c0.137 0.137 0.246 0.299 0.32 0.478s0.112 0.371 0.111 0.565zM17 1.375c0.349 0 0.689 0.109 0.974 0.31s0.5 0.486 0.617 0.815h-1.591c-0.149 0-0.292 0.059-0.398 0.165l-0.96 0.96h-0.329v-0.563c0.001-0.447 0.178-0.876 0.495-1.193s0.745-0.494 1.193-0.495zM11.938 7.563h-0.5c0.696-1.039 1.066-2.261 1.062-3.511v-1.311c0-0.137 0.035-0.271 0.102-0.391s0.163-0.22 0.279-0.292 0.249-0.113 0.386-0.119c0.137-0.006 0.273 0.023 0.395 0.084l0.622 0.311c-0.064 0.238-0.096 0.483-0.096 0.729v2.25c-0.001 0.597-0.238 1.168-0.66 1.59s-0.994 0.659-1.59 0.66zM15.313 4.75h0.563c0.149 0 0.292-0.059 0.398-0.165l0.96-0.96h1.454v1.687c0 0.448-0.178 0.877-0.494 1.193s-0.746 0.494-1.193 0.494-0.877-0.178-1.193-0.494c-0.316-0.316-0.494-0.746-0.494-1.193v-0.563zM13.794 11.275l1.866-2.488c0.155-0.205 0.355-0.371 0.584-0.486s0.483-0.175 0.74-0.175c0.21 0 0.415 0.058 0.594 0.167s0.325 0.266 0.421 0.452c0.096 0.186 0.139 0.396 0.123 0.605s-0.088 0.41-0.21 0.581l-2.495 3.493c-0.059 0.083-0.095 0.181-0.103 0.283s0.012 0.204 0.058 0.296l1.688 3.375c0.067 0.133 0.184 0.235 0.325 0.282l1.562 0.52 0.182 0.182-0.226 0.451h-2.746l-2.362-3.15c-0.475-0.633-0.731-1.403-0.731-2.194s0.257-1.561 0.731-2.194zM15.425 19.712c0.052 0.070 0.12 0.127 0.198 0.166s0.164 0.059 0.252 0.059h3.375c0.104 0 0.207-0.029 0.296-0.084s0.161-0.134 0.207-0.227l0.563-1.125c0.053-0.106 0.071-0.225 0.052-0.342s-0.074-0.224-0.157-0.308l-0.563-0.563c-0.062-0.062-0.137-0.108-0.22-0.136l-1.466-0.489-0.332-0.665h1.559l3.999 0.889v4.174h-6.75c-0.597-0.001-1.168-0.238-1.59-0.66s-0.659-0.994-0.66-1.59v-0.75l1.237 1.65zM1.494 30.625h-0.244v-4.5h1.226l0.429 2.147-1.412 2.353zM14.61 27.627c-0.217 0.379-0.539 0.687-0.928 0.886s-0.827 0.281-1.261 0.235l-8.45-0.889-0.347-1.734h7.751c0.118 0 0.233-0.037 0.329-0.106s0.167-0.166 0.205-0.278l0.518-1.554 3.227 1.614-1.044 1.827zM16.213 24.821l-3.427-1.713 0.82-2.461c0.306 0.473 0.725 0.861 1.22 1.13s1.048 0.41 1.611 0.411h1.281l-1.505 2.634zM26.552 21.515c-0.026-0.128-0.094-0.242-0.195-0.325s-0.227-0.128-0.357-0.128h-1.688v-3.924l2.965 0.659c0.46 0.102 0.877 0.346 1.191 0.698s0.509 0.794 0.558 1.263l0.876 8.319-1.82 1.092-1.531-7.655zM32.75 30.625h-4.5v-0.244l2.25-1.35 2.25 1.35v0.244z"></path>
</symbol>
<symbol id="icon-arrow-right" viewBox="0 0 58 32">
<path d="M41.608 0.855l-2.616 2.616 11.099 11.099h-48.241v3.7h48.241l-11.099 11.099 2.616 2.616 15.565-15.565-15.565-15.565z"></path>
</symbol>
<symbol id="icon-arrow-left" viewBox="0 0 56 32">
<path d="M54.395 14.251h-45.636l10.499-10.499-2.475-2.475-14.724 14.724 14.724 14.724 2.475-2.475-10.5-10.5h45.636v-3.5z"></path>
</symbol>
<symbol id="icon-vector" viewBox="0 0 38 32">
<path d="M1.212 28.596l0.591 1.773c0.039 0.118 0.114 0.22 0.215 0.293s0.221 0.112 0.345 0.111h1.773c0.124 0 0.245-0.039 0.346-0.111s0.176-0.175 0.215-0.293l0.456-1.369h0.921l0.456 1.369c0.039 0.118 0.114 0.22 0.215 0.293s0.221 0.112 0.346 0.111h1.773c0.124 0 0.245-0.039 0.345-0.111s0.176-0.175 0.215-0.293l0.591-1.773h-0c0.020-0.060 0.031-0.123 0.031-0.187v-2.364c0-0.157-0.062-0.307-0.173-0.418s-0.261-0.173-0.418-0.173h-1.773v-1.773h2.364c0.157 0 0.307-0.062 0.418-0.173s0.173-0.261 0.173-0.418v-2.954c0-0.157-0.062-0.307-0.173-0.418s-0.261-0.173-0.418-0.173h-1.773v-0.591c0-0.157-0.062-0.307-0.173-0.418l-0.984-0.984 0.51-5.098h2.055l3.382 6.764c0.438 0.88 1.141 1.601 2.010 2.061l17.741 9.425c0.137 0.073 0.296 0.089 0.445 0.045s0.274-0.144 0.349-0.28l2.955-5.318c0.039-0.070 0.063-0.146 0.071-0.226s0-0.159-0.023-0.236c-0.024-0.076-0.062-0.147-0.114-0.208s-0.115-0.111-0.186-0.146l-1.182-0.591c-0.089-0.044-0.188-0.066-0.287-0.062s-0.196 0.033-0.281 0.084l-2.608 1.565-12.544-9.693-2.7-7.561c0.281-0.462 0.43-0.992 0.429-1.532v-2.955c0-0.439-0.122-0.869-0.353-1.243s-0.561-0.675-0.954-0.871-0.832-0.279-1.269-0.24c-0.437 0.039-0.855 0.2-1.206 0.463l-1.891 1.418c-0.073 0.055-0.133 0.126-0.174 0.208s-0.062 0.173-0.062 0.264v2.955c-0 0.407 0.084 0.809 0.247 1.182h-3.793c-1.253 0.001-2.455 0.5-3.341 1.386s-1.385 2.088-1.386 3.341v6.5c0 0.157 0.062 0.307 0.173 0.418l0.173 0.173h-1.528c-0.157 0-0.307 0.062-0.418 0.173s-0.173 0.261-0.173 0.418v2.954c0 0.157 0.062 0.307 0.173 0.418s0.261 0.173 0.418 0.173h2.364v1.773h-2.364c-0.157 0-0.307 0.062-0.418 0.173s-0.173 0.261-0.173 0.418v2.364c0 0.064 0.010 0.127 0.031 0.187h-0zM3.71 29.591h-0.921l-0.197-0.591h1.315l-0.197 0.591zM7.517 29.591l-0.197-0.591h1.315l-0.197 0.591h-0.921zM9.455 11.273v-2.364l2.955-0.002c0.483 0.364 1.067 0.57 1.672 0.591s1.201-0.146 1.708-0.476l1.934 5.414-4.689 2.084-2.033-4.065h2.589v-1.182h-4.136zM15.955 6.545c0 0.47-0.187 0.921-0.519 1.253s-0.783 0.519-1.254 0.519c-0.47 0-0.921-0.187-1.254-0.519s-0.519-0.783-0.519-1.253v-0.591h0.591c0.157 0 0.307-0.062 0.418-0.173l1.009-1.009h1.528v1.773zM30.924 28.362l-10.526-5.592 2.053-3.286 8.817 6.813-0.344 2.065zM34.889 24.946l0.34 0.17-2.373 4.272-0.831-0.442 0.422-2.535 2.442-1.465zM21.511 18.758l-2.16 3.456-3.725-1.979c-0.652-0.345-1.179-0.885-1.508-1.545l-0.556-1.111 4.558-2.026 0.231 0.647c0.038 0.106 0.106 0.2 0.195 0.269l2.964 2.29zM14.064 2.645c0.176-0.132 0.384-0.212 0.603-0.232s0.438 0.022 0.635 0.12 0.361 0.249 0.477 0.436c0.115 0.187 0.176 0.402 0.177 0.621h-1.773c-0.157 0-0.307 0.062-0.418 0.173l-1.009 1.009h-0.346v-0.886l1.655-1.241zM4.136 18.71v-6.255c0.001-0.94 0.375-1.841 1.040-2.506s1.566-1.039 2.506-1.040h0.591v2.364h-1.182c-0.147 0-0.288 0.054-0.396 0.153s-0.177 0.234-0.191 0.379l-0.591 5.909c-0.009 0.087 0.002 0.175 0.031 0.257s0.077 0.157 0.139 0.219l1.009 1.009v0.346h-2.119l-0.836-0.836zM2.364 20.727h7.091v1.773h-7.091v-1.773zM5.318 23.682h1.182v1.773h-1.182v-1.773zM2.364 26.636h6.5v1.182h-6.5v-1.182z"></path>
</symbol>
<symbol id="icon-vector-1" viewBox="0 0 32 32">
<path d="M31.974 25.751l-0.577-2.206c-0.126-0.483-0.527-0.834-1.023-0.895l-2.057-0.253c-0.051-0.006-0.098-0.031-0.133-0.068l-3.129-3.395c-0.046-0.050-0.076-0.112-0.086-0.179l-0.645-4.179c-0.039-0.254-0.276-0.428-0.531-0.389s-0.428 0.277-0.389 0.531l0.645 4.179c0.039 0.251 0.15 0.482 0.322 0.668l3.129 3.395c0.184 0.2 0.434 0.328 0.704 0.361l2.057 0.253c0.114 0.014 0.207 0.095 0.236 0.206l0.498 1.903-2.978-1.243c-0.216-0.090-0.423-0.202-0.616-0.334l-4.458-3.038c-0.124-0.085-0.216-0.211-0.258-0.355l-1.642-5.599c0.15-0.425 0.228-0.875 0.228-1.329 0 0-0.001-3.379-0.002-3.408 0.172 0.076 0.337 0.169 0.49 0.279l0.256 0.186c0.567 0.411 0.953 1.044 1.060 1.736 0.086 0.6 1.020 0.452 0.92-0.142-0.144-0.936-0.667-1.791-1.433-2.347l-0.256-0.186c-0.456-0.331-0.988-0.548-1.543-0.636-0.3-0.289-0.707-0.468-1.155-0.468h-1.262v-0.981c0-0.001-0-0.003-0-0.004 0.219-0.242 0.401-0.518 0.538-0.815 0.422-0.132 0.812-0.476 1.060-0.952 0.195-0.372 0.276-0.782 0.231-1.153-0.053-0.429-0.275-0.774-0.609-0.949-0.121-0.063-0.251-0.102-0.386-0.116v-1.335c0-1.222-0.994-2.216-2.216-2.216h-1.903c-1.222 0-2.216 0.994-2.216 2.216v1.332c-0.144 0.011-0.282 0.051-0.411 0.118-0.334 0.175-0.556 0.521-0.609 0.949-0.046 0.371 0.036 0.781 0.231 1.153 0.251 0.481 0.657 0.831 1.088 0.958 0.131 0.283 0.304 0.547 0.51 0.781v1.012h-1.262c-0.448 0-0.856 0.179-1.155 0.468-0.556 0.088-1.088 0.305-1.543 0.636l-0.256 0.186c-0.766 0.556-1.289 1.412-1.433 2.347l-0.974 6.318c-0.010 0.067-0.040 0.129-0.086 0.179l-3.129 3.395c-0.035 0.038-0.082 0.062-0.133 0.068l-2.057 0.253c-0.495 0.061-0.896 0.412-1.023 0.895l-0.577 2.206c-0.067 0.256-0.001 0.521 0.173 0.714-0.117 0.309-0.178 0.638-0.178 0.972 0 1.517 1.234 2.751 2.751 2.751h3.191c-0.117 0.254-0.149 0.544-0.082 0.824 0.117 0.554 0.778 0.874 1.285 0.621l1.783-0.831c0.397-0.185 0.819-0.297 1.256-0.334l3.316-0.28h15.708c1.517 0 2.751-1.234 2.751-2.751 0-0.334-0.062-0.662-0.179-0.972 0.174-0.193 0.24-0.458 0.173-0.714zM22.42 21.836l1.509 1.029c-0.875-0.121-1.759-0.182-2.644-0.182-0.006 0-0.013 0.001-0.019 0.001l-0.172-0.285c-0.629-1.040-0.962-2.232-0.962-3.448v-1.003c0-0.543 0.106-1.079 0.31-1.579l1.351 4.605c0.103 0.35 0.325 0.656 0.627 0.862zM14.585 8.685c0.414 0.345 0.92 0.518 1.427 0.518 0.497 0 0.994-0.166 1.403-0.498v0.799c0 0.373-0.304 0.677-0.677 0.677h-1.476c-0.373 0-0.677-0.304-0.677-0.677v-0.819zM15.061 1.21h1.903c0.709 0 1.285 0.577 1.285 1.285v0.020h-4.473v-0.020c0-0.709 0.577-1.285 1.285-1.285zM12.881 5.617c-0.106-0.204-0.155-0.425-0.132-0.609 0.013-0.247 0.193-0.303 0.358-0.206 0.144 0.070 0.314 0.061 0.45-0.024s0.218-0.234 0.218-0.394v-0.938h4.473v0.926c0 0.158 0.080 0.305 0.213 0.391s0.3 0.098 0.444 0.033c0.159-0.090 0.333-0.025 0.345 0.213 0.023 0.183-0.026 0.405-0.132 0.609-0.168 0.322-0.429 0.501-0.6 0.511-0.185 0.011-0.346 0.131-0.409 0.306-0.12 0.331-0.318 0.634-0.571 0.877l-0.628 0.601c-0.504 0.482-1.294 0.482-1.798 0l-0.628-0.601c-0.254-0.243-0.451-0.546-0.571-0.877-0.065-0.18-0.234-0.301-0.425-0.306-0.172-0.005-0.436-0.182-0.608-0.511zM12.393 9.729h1.278c0.11 0.78 0.782 1.382 1.592 1.382h1.476c0.81 0 1.482-0.602 1.592-1.382h1.278c0.404 0 0.733 0.329 0.733 0.733v3.322c0 0.548-0.147 1.087-0.427 1.559-0.466 0.788-0.712 1.689-0.712 2.605v1.003c0 1.385 0.379 2.744 1.096 3.929l0.173 0.285-0.61 0.087c-2.561 0.367-5.159 0.367-7.72 0l-0.61-0.087 0.172-0.285c0.717-1.185 1.096-2.544 1.096-3.929v-1.003c0-0.916-0.246-1.816-0.712-2.604-0.279-0.472-0.427-1.011-0.427-1.559v-3.322c-0-0.404 0.329-0.733 0.733-0.733zM10.906 22.399l-0.172 0.285c-0.006-0-0.013-0.001-0.019-0.001-0.885 0-1.769 0.062-2.645 0.183l1.511-1.030c0.302-0.206 0.524-0.512 0.627-0.862l1.351-4.605c0.203 0.5 0.31 1.036 0.31 1.579v1.003c0 1.216-0.333 2.408-0.962 3.448zM1.503 23.78c0.029-0.111 0.122-0.192 0.236-0.206l2.057-0.253c0.27-0.033 0.52-0.161 0.704-0.361l3.129-3.395c0.172-0.186 0.283-0.417 0.322-0.668l0.974-6.318c0.107-0.692 0.493-1.325 1.060-1.736l0.256-0.186c0.153-0.111 0.318-0.204 0.49-0.28-0.001 0.028-0.002 3.408-0.002 3.408 0 0.454 0.078 0.904 0.228 1.329l-1.642 5.599c-0.042 0.144-0.134 0.27-0.258 0.355l-4.458 3.038c-0.193 0.132-0.4 0.244-0.616 0.334l-2.978 1.244 0.498-1.903zM0.951 27.437c0-0.279 0.065-0.552 0.186-0.8l2.847-1.189 1.572-0.085c1.288-0.070 2.579 0.040 3.837 0.325 0.078 0.014 0.504 0.125 0.575 0.119 0.212 0 0.404-0.146 0.453-0.362 0.057-0.251-0.1-0.5-0.351-0.557l-0.472-0.107c-1.25-0.284-2.531-0.404-3.811-0.359l0.329-0.224c1.45-0.374 2.943-0.57 4.441-0.583 0.001 0.003 0.002 0.006 0.004 0.010 0.109 0.23 0.325 0.39 0.577 0.426l0.869 0.125c1.324 0.19 2.658 0.285 3.992 0.285s2.668-0.095 3.992-0.285l0.869-0.125c0.252-0.036 0.468-0.195 0.577-0.426 0.002-0.003 0.002-0.006 0.004-0.010 1.498 0.013 2.991 0.209 4.441 0.583l0.329 0.224c-1.28-0.045-2.561 0.076-3.811 0.359l-6.401 1.452-2.155-0.489c-0.686-0.385-1.554-0.254-2.093 0.328l-0.823 0.888c-0.085 0.092-0.192 0.162-0.309 0.204l-1.989 0.713c-0.408 0.146-0.773 0.372-1.086 0.672l-0.74 0.709h-4.033c-1.004 0-1.821-0.817-1.821-1.821zM10.127 29.54c-0.546 0.046-1.075 0.186-1.571 0.418l-1.772 0.827c-0.023-0.113 0.014-0.231 0.097-0.311l1.308-1.253c0.218-0.209 0.472-0.366 0.757-0.468l1.989-0.713c0.257-0.092 0.492-0.247 0.678-0.448l0.823-0.888c0.267-0.291 0.708-0.327 1.028-0.106l0.737 0.46c0.218 0.136 0.454 0.245 0.699 0.322l0.031 0.010v1.746l-4.804 0.405zM29.228 29.258h-13.367v-2.040l6.745-1.53c1.258-0.285 2.549-0.395 3.837-0.325 0 0 1.544 0.082 1.562 0.081l2.857 1.193c0.122 0.249 0.186 0.522 0.186 0.8 0 1.004-0.817 1.821-1.821 1.821z"></path>
</symbol>
<symbol id="icon-twitter" viewBox="0 0 38 32">
<path d="M34.422 8.563c1.478-1.109 2.809-2.439 3.844-3.992-1.331 0.591-2.883 1.035-4.435 1.183 1.626-0.961 2.809-2.439 3.401-4.287-1.478 0.887-3.179 1.552-4.879 1.922-1.478-1.552-3.474-2.439-5.692-2.439-4.287 0-7.762 3.474-7.762 7.762 0 0.591 0.074 1.183 0.222 1.774-6.431-0.37-12.197-3.474-16.041-8.131-0.665 1.109-1.035 2.439-1.035 3.918 0 2.661 1.331 5.027 3.474 6.431-1.257-0.074-2.513-0.37-3.548-0.961v0.074c0 3.77 2.661 6.875 6.209 7.614-0.591 0.148-1.331 0.296-1.996 0.296-0.517 0-0.961-0.074-1.478-0.148 0.961 3.105 3.844 5.322 7.244 5.396-2.661 2.070-5.988 3.326-9.61 3.326-0.665 0-1.257-0.074-1.848-0.148 3.4 2.218 7.466 3.474 11.901 3.474 14.267 0 22.029-11.754 22.029-22.029 0-0.37 0-0.665 0-1.035z"></path>
</symbol>
<symbol id="icon-google" viewBox="0 0 53 32">
<path d="M31.883 14.087h-14.415v5.227h8.633c-0.317 2.218-2.614 6.574-8.633 6.574-5.148 0-9.425-4.277-9.425-9.663 0-5.306 4.277-9.583 9.425-9.583 3.010 0 4.99 1.267 6.099 2.376l4.118-3.96c-2.693-2.534-6.099-4.039-10.217-4.039-8.395 0-15.207 6.811-15.207 15.207 0 8.475 6.811 15.207 15.207 15.207 8.791 0 14.652-6.099 14.652-14.811 0-1.030-0.158-1.742-0.238-2.534zM46.535 14.562v-4.356h-4.435v4.356h-4.435v4.435h4.435v4.435h4.435v-4.435h4.435v-4.435h-4.435z"></path>
</symbol>
<symbol id="icon-linkedin" viewBox="0 0 34 32">
<path d="M8.568 31.335v-20.721h-6.445v20.721h6.445zM5.311 7.841c2.079 0 3.742-1.733 3.742-3.812 0-2.010-1.663-3.673-3.742-3.673-2.010 0-3.673 1.663-3.673 3.673 0 2.079 1.663 3.812 3.673 3.812zM32.616 31.335h0.069v-11.366c0-5.544-1.247-9.841-7.762-9.841-3.119 0-5.198 1.733-6.099 3.326h-0.069v-2.841h-6.168v20.721h6.445v-10.257c0-2.703 0.485-5.267 3.812-5.267s3.396 3.049 3.396 5.475v10.049h6.376z"></path>
</symbol>
<symbol id="icon-facebook" viewBox="0 0 19 32">
<path d="M16.25 18.342l0.817-5.369h-5.194v-3.502c0-1.517 0.7-2.918 3.035-2.918h2.393v-4.61c0 0-2.159-0.409-4.202-0.409-4.26 0-7.061 2.626-7.061 7.295v4.144h-4.785v5.369h4.785v13.072h5.836v-13.072h4.377z"></path>
</symbol>
</defs>
</svg>
